{"glyphs":{"0":{"ha":944,"x_min":0,"x_max":0,"o":"m 56 486 b 472 992 56 810 225 992 b 890 486 731 992 890 810 b 472 -19 890 163 731 -19 b 56 486 225 -19 56 163 m 314 486 b 472 210 314 315 378 210 b 632 486 567 210 632 315 b 472 763 632 657 567 763 b 314 486 378 763 314 657 "},"1":{"ha":731,"x_min":0,"x_max":0,"o":"m 89 894 l 596 992 l 596 0 l 338 0 l 338 724 l 89 665 "},"2":{"ha":946,"x_min":0,"x_max":0,"o":"m 454 436 b 586 657 536 525 586 581 b 468 764 586 713 547 764 b 336 606 388 764 336 697 l 72 606 b 478 993 72 813 210 993 b 864 675 726 993 864 831 b 721 415 864 569 807 485 l 519 246 l 893 246 l 893 0 l 28 0 "},"3":{"ha":892,"x_min":0,"x_max":0,"o":"m 454 -25 b 61 324 206 -25 61 144 l 326 324 b 465 188 326 226 393 188 b 593 293 538 188 593 215 b 390 418 593 363 538 418 l 390 582 b 565 701 493 582 565 638 b 467 781 565 749 533 781 b 350 675 399 781 350 738 l 103 675 b 467 992 103 854 246 992 b 831 719 700 992 831 874 b 664 511 831 618 765 550 b 858 268 786 469 858 390 b 454 -25 858 97 711 -25 "},"4":{"ha":1017,"x_min":0,"x_max":0,"o":"m 589 972 l 800 972 l 800 394 l 953 394 l 953 167 l 800 167 l 800 0 l 519 0 l 519 167 l 17 167 m 553 354 l 553 608 l 363 354 "},"5":{"ha":928,"x_min":0,"x_max":0,"o":"m 874 308 b 465 -19 874 76 653 -19 b 64 83 286 -19 161 28 l 153 314 b 399 226 240 253 336 226 b 578 342 510 226 578 258 b 399 451 578 425 485 451 b 118 399 328 451 217 442 l 256 972 l 849 972 l 849 739 l 451 739 l 400 590 b 576 624 453 615 511 624 b 874 308 726 624 874 513 "},"6":{"ha":967,"x_min":0,"x_max":0,"o":"m 806 967 l 508 653 b 594 664 533 661 560 664 b 899 347 736 664 899 549 b 483 -25 899 97 710 -25 b 69 347 257 -25 69 97 b 197 639 69 460 126 553 l 464 967 m 336 347 b 483 203 336 258 400 203 b 632 347 567 203 632 258 b 483 494 632 436 567 494 b 336 347 400 494 336 436 "},"7":{"ha":868,"x_min":0,"x_max":0,"o":"m 42 972 l 868 972 l 397 0 l 106 0 l 474 721 l 42 721 "},"8":{"ha":903,"x_min":0,"x_max":0,"o":"m 71 264 b 254 515 71 394 153 472 b 106 738 169 557 106 629 b 451 997 106 908 265 997 b 799 738 638 997 799 908 b 649 515 799 629 735 557 b 833 264 750 472 833 394 b 451 -25 833 79 647 -25 b 71 264 256 -25 71 79 m 358 713 b 451 614 358 654 396 614 b 546 713 507 614 546 654 b 451 810 546 771 508 810 b 358 713 394 810 358 771 m 340 306 b 451 192 340 231 388 192 b 564 306 515 192 564 231 b 451 415 564 367 515 415 b 340 306 388 415 340 367 "},"9":{"ha":967,"x_min":0,"x_max":0,"o":"m 163 6 l 460 319 b 374 308 435 311 408 308 b 69 625 232 308 69 424 b 483 997 69 875 257 997 b 899 625 710 997 899 875 b 771 333 899 513 842 419 l 504 6 m 632 625 b 483 769 632 714 567 769 b 336 625 400 769 336 714 b 483 478 336 536 400 478 b 632 625 567 478 632 536 "}," ":{"ha":417,"x_min":0,"x_max":0,"o":""},"!":{"ha":494,"x_min":0,"x_max":0,"o":"m 396 972 l 346 333 l 150 333 l 100 972 m 100 94 b 247 228 100 174 161 228 b 394 94 333 228 394 174 b 247 -37 394 15 333 -37 b 100 94 161 -37 100 15 "},"'":{"ha":435,"x_min":0,"x_max":0,"o":"m 385 972 l 232 522 l 78 522 l 136 972 "},"\"":{"ha":740,"x_min":0,"x_max":0,"o":"m 385 972 l 232 522 l 78 522 l 136 972 m 692 972 l 539 522 l 383 522 l 442 972 "},"#":{"ha":951,"x_min":0,"x_max":0,"o":"m 49 418 l 183 418 l 218 561 l 104 561 l 104 751 l 264 751 l 318 972 l 522 972 l 468 751 l 613 751 l 665 972 l 871 972 l 817 751 l 904 751 l 904 561 l 771 561 l 736 418 l 849 418 l 849 228 l 690 228 l 635 0 l 429 0 l 485 228 l 342 228 l 286 0 l 82 0 l 138 228 l 49 228 m 539 407 l 581 572 l 414 572 l 374 407 "},"$":{"ha":881,"x_min":0,"x_max":0,"o":"m 626 669 b 467 796 585 750 529 796 b 372 719 400 796 372 760 b 593 582 372 644 475 625 b 842 275 733 531 842 440 b 550 -7 842 117 729 19 l 557 -156 l 365 -156 l 372 -8 b 38 226 221 18 90 118 l 222 358 b 453 196 292 247 354 196 b 557 275 525 196 557 222 b 364 406 557 339 478 361 b 96 717 268 443 96 525 b 372 979 96 842 206 951 l 365 1136 l 558 1136 l 551 979 b 828 782 699 954 774 872 l 626 669 "},"%":{"ha":1344,"x_min":0,"x_max":0,"o":"m 26 736 b 301 1003 26 883 147 1003 b 578 736 456 1003 578 883 b 301 469 578 589 456 469 b 26 736 147 469 26 589 m 1189 972 l 407 0 l 157 0 l 939 972 m 221 736 b 301 656 221 692 256 656 b 382 736 347 656 382 692 b 301 817 382 781 347 817 b 221 736 256 817 221 781 m 768 238 b 1044 504 768 385 890 504 b 1319 238 1199 504 1319 385 b 1044 -29 1319 90 1199 -29 b 768 238 890 -29 768 90 m 964 238 b 1044 157 964 193 999 157 b 1125 238 1090 157 1125 193 b 1044 318 1125 282 1090 318 b 964 238 999 318 964 282 "},"&":{"ha":1075,"x_min":0,"x_max":0,"o":"m 715 72 b 401 -19 625 17 519 -19 b 56 263 207 -19 56 86 b 288 535 56 417 179 490 b 179 750 228 601 179 664 b 496 999 179 869 296 999 b 790 758 688 999 790 875 b 586 497 790 635 719 586 l 736 339 b 846 483 776 382 813 431 l 1003 360 b 869 196 967 306 922 249 l 1054 0 l 782 0 m 408 733 b 476 614 408 696 433 661 b 576 733 543 653 576 696 b 494 811 576 769 544 811 b 408 733 435 811 408 769 m 306 285 b 436 179 306 229 347 179 b 582 217 485 179 535 193 l 410 403 b 306 285 351 375 306 346 "},"(":{"ha":486,"x_min":0,"x_max":0,"o":"m 472 1083 b 317 403 375 875 317 639 b 472 -278 317 167 375 -69 l 257 -278 b 86 403 146 -69 86 167 b 257 1083 86 639 146 875 "},")":{"ha":486,"x_min":0,"x_max":0,"o":"m 14 -278 b 169 403 111 -69 169 167 b 14 1083 169 639 111 875 l 229 1083 b 401 403 340 875 401 639 b 229 -278 401 167 340 -69 "},"*":{"ha":822,"x_min":0,"x_max":0,"o":"m 119 415 l 293 590 l 50 631 l 119 840 l 339 729 l 301 972 l 521 972 l 483 729 l 703 840 l 772 631 l 529 590 l 703 415 l 524 286 l 411 506 l 299 286 "},"+":{"ha":960,"x_min":0,"x_max":0,"o":"m 90 493 l 357 493 l 357 767 l 604 767 l 604 493 l 871 493 l 871 265 l 604 265 l 604 -8 l 357 -8 l 357 265 l 90 265 "},",":{"ha":454,"x_min":0,"x_max":0,"o":"m 394 107 l 214 -240 l 33 -207 l 156 153 "},"-":{"ha":313,"x_min":0,"x_max":0,"o":"m 7 432 l 307 432 l 307 228 l 7 228 "},".":{"ha":456,"x_min":0,"x_max":0,"o":"m 82 106 b 229 250 82 185 143 250 b 375 106 315 250 375 185 b 229 -37 375 26 315 -37 b 82 106 143 -37 82 26 "},"/":{"ha":882,"x_min":0,"x_max":0,"o":"m 863 972 l 261 -208 l 21 -208 l 633 972 "},":":{"ha":456,"x_min":0,"x_max":0,"o":"m 82 622 b 229 767 82 701 143 767 b 375 622 315 767 375 701 b 229 479 375 543 315 479 b 82 622 143 479 82 543 m 82 106 b 229 250 82 185 143 250 b 375 106 315 250 375 185 b 229 -37 375 26 315 -37 b 82 106 143 -37 82 26 "},";":{"ha":571,"x_min":0,"x_max":0,"o":"m 163 611 b 310 756 163 690 224 756 b 457 611 396 756 457 690 b 310 468 457 532 396 468 b 163 611 224 468 163 532 m 435 107 l 254 -240 l 72 -207 l 194 153 "},"<":{"ha":889,"x_min":0,"x_max":0,"o":"m 799 228 l 799 -7 l 90 288 l 90 450 l 799 744 l 799 511 l 424 374 "},"=":{"ha":874,"x_min":0,"x_max":0,"o":"m 74 608 l 801 608 l 801 403 l 74 403 m 74 299 l 801 299 l 801 93 l 74 93 "},">":{"ha":889,"x_min":0,"x_max":0,"o":"m 90 511 l 90 744 l 799 450 l 799 288 l 90 -7 l 90 228 l 465 364 "},"?":{"ha":899,"x_min":0,"x_max":0,"o":"m 586 694 b 443 804 586 764 535 804 b 218 682 361 804 272 763 l 61 817 b 457 1003 169 936 292 1003 b 828 694 642 1003 828 893 b 529 394 828 522 675 424 l 524 292 l 328 292 l 300 540 l 347 540 b 586 694 514 540 586 633 m 279 89 b 425 215 279 157 339 215 b 572 89 511 215 572 157 b 425 -37 572 21 511 -37 b 279 89 339 -37 279 21 "},"@":{"ha":1069,"x_min":0,"x_max":0,"o":"m 21 444 b 576 1008 21 760 254 1008 b 1049 542 874 1008 1049 774 b 778 197 1049 294 915 197 b 615 314 700 197 632 246 b 456 211 576 247 518 211 b 275 432 340 211 275 294 b 492 736 275 625 385 736 b 615 667 542 736 585 710 l 621 722 l 799 722 l 768 435 b 765 397 767 425 765 408 b 797 344 765 364 774 344 b 879 542 828 344 879 378 b 576 857 879 715 776 857 b 190 444 338 857 190 688 b 529 110 190 240 299 110 b 779 169 626 110 701 133 l 832 31 b 507 -42 749 -15 643 -42 b 21 444 188 -42 21 168 m 460 444 b 507 358 460 389 478 358 b 592 503 549 358 592 422 b 543 589 592 564 574 589 b 460 444 494 589 460 519 "},"A":{"ha":1050,"x_min":0,"x_max":0,"o":"m 668 157 l 382 157 l 301 0 l -4 0 l 525 1038 l 1056 0 l 750 0 m 429 356 l 622 356 l 525 574 "},"B":{"ha":965,"x_min":0,"x_max":0,"o":"m 907 269 b 515 0 907 76 758 0 l 100 0 l 100 972 l 490 972 b 851 724 697 972 851 889 b 713 519 851 631 799 561 b 907 269 822 479 907 399 m 369 767 l 369 588 l 457 588 b 571 681 532 588 571 622 b 457 767 571 739 532 767 m 482 206 b 626 311 563 206 626 225 b 482 406 626 386 563 406 l 369 406 l 369 206 "},"C":{"ha":978,"x_min":0,"x_max":0,"o":"m 339 486 b 610 229 339 321 463 229 b 893 354 747 229 831 290 l 893 71 b 592 -25 815 14 733 -25 b 44 486 267 -25 44 179 b 592 997 44 793 267 997 b 893 901 733 997 815 958 l 893 618 b 610 743 831 682 747 743 b 339 486 463 743 339 651 "}}}
